# xmcd
#
# Track frame offsets: 
#        150
#        13238
#        30302
#        47592
#        65999
#        75747
#        90113
#        99920
#        112208
#        123690
#
# Disc length: 1900 seconds
#
# Revision: 0
# Processed by: cddbd v1.5.2PL0 Copyright (c) Steve Scherf et al.
# Submitted via: ExactAudioCopy v1.0b4
#
DISCID=7c076a0a
DTITLE=Lightnin' Hopkins - The Roots of Lightnin' Hopkins (LP)
DYEAR=1959
DGENRE=Blues
TTITLE0=Penitentiary Blues
TTITLE1=Bad Luck and Trouble
TTITLE2=Come Go Home with Me
TTITLE3=Trouble Stay 'Way from My Door
TTITLE4=See That My Grave Is Kept Clean
TTITLE5=Goin' Back to Florida
TTITLE6=Reminiscences of Blind Lemon
TTITLE7=Fan It
TTITLE8=Tell Me, Baby
TTITLE9=She's Mine
EXTD=
EXTT0=
EXTT1=
EXTT2=
EXTT3=
EXTT4=
EXTT5=
EXTT6=
EXTT7=
EXTT8=
EXTT9=
PLAYORDER=
